<svg width="73" height="21" viewBox="0 0 73 21" fill="none" xmlns="http://www.w3.org/2000/svg">
<path d="M18.982 10.4342C18.982 15.395 15.0422 19.3684 10.241 19.3684C5.43978 19.3684 1.5 15.395 1.5 10.4342C1.5 5.47343 5.43978 1.5 10.241 1.5C15.0422 1.5 18.982 5.47343 18.982 10.4342Z" fill="white" stroke="white" stroke-width="3"/>
<path d="M6.22388 6.02905L14.7017 15.1005" stroke="black" stroke-linecap="round"/>
<path d="M14.7012 6.02881L6.22333 15.1003" stroke="black" stroke-linecap="round"/>
<path d="M71.5 10.4342C71.5 15.395 67.5603 19.3684 62.7591 19.3684C57.9578 19.3684 54.0181 15.395 54.0181 10.4342C54.0181 5.47343 57.9578 1.5 62.7591 1.5C67.5603 1.5 71.5 5.47343 71.5 10.4342Z" fill="white" stroke="white" stroke-width="3"/>
<path d="M44.7159 10.4342C44.7159 15.395 40.7761 19.3684 35.9749 19.3684C31.1737 19.3684 27.2339 15.395 27.2339 10.4342C27.2339 5.47343 31.1737 1.5 35.9749 1.5C40.7761 1.5 44.7159 5.47343 44.7159 10.4342Z" fill="white" stroke="white" stroke-width="3"/>
</svg>
