<svg id="Layer_1" data-name="Layer 1" xmlns="http://www.w3.org/2000/svg" viewBox="0 0 1282.16 1194.66"><defs><style>.cls-1{fill:none;stroke:#fff;stroke-miterlimit:10;stroke-width:0.25px;}</style></defs><path class="cls-1" d="M-6.46,760c382.13-46.34,812.73-171.48,1185.54,0" transform="translate(40.61 77.19)"/><path class="cls-1" d="M-6.46,713.62c382.13-51,816.46-180.76,1189.27,0" transform="translate(40.61 77.19)"/><path class="cls-1" d="M-6.46,667.27c380.27-55.62,822.05-185.39,1191.14,0" transform="translate(40.61 77.19)"/><path class="cls-1" d="M-6.46,620.92c380.27-55.62,823.91-185.39,1193,0" transform="translate(40.61 77.19)"/><path class="cls-1" d="M-6.46,574.57c380.27-55.61,823.91-185.39,1193,0" transform="translate(40.61 77.19)"/><path class="cls-1" d="M-6.46,528.23c380.27-55.62,822.05-180.76,1193,0" transform="translate(40.61 77.19)"/><path class="cls-1" d="M-6.46,481.88c382.13-51,820.18-166.85,1193,0" transform="translate(40.61 77.19)"/><path class="cls-1" d="M-6.46,435.53c384-51,816.46-152.94,1193,0" transform="translate(40.61 77.19)"/><path class="cls-1" d="M-6.46,389.19c385.86-46.35,814.59-134.41,1193,0" transform="translate(40.61 77.19)"/><path class="cls-1" d="M-6.46,342.83c387.72-41.71,810.86-115.87,1193,0" transform="translate(40.61 77.19)"/><path class="cls-1" d="M-6.46,296.49c389.59-41.72,807.14-92.7,1193,0" transform="translate(40.61 77.19)"/><path class="cls-1" d="M-6.46,250.14c391.45-37.08,803.41-74.16,1193,0" transform="translate(40.61 77.19)"/><path class="cls-1" d="M-6.46,203.79c393.31-32.45,801.54-51,1193,0" transform="translate(40.61 77.19)"/><path class="cls-1" d="M-6.46,157.44c385.86-74.16,805.27-32.45,1193,0" transform="translate(40.61 77.19)"/><path class="cls-1" d="M-6.46,111.09c389.59-69.52,803.41-18.54,1193,0" transform="translate(40.61 77.19)"/><path class="cls-1" d="M-6.46,64.74c391.45-64.89,801.54-4.63,1193,0" transform="translate(40.61 77.19)"/><path class="cls-1" d="M-6.46,18.4c391.45-60.25,799.68,0,1193,0" transform="translate(40.61 77.19)"/><path class="cls-1" d="M1203.33,1076.7c118.09-388.47-83.56-767.49-2.54-1153.86" transform="translate(40.61 77.19)"/><path class="cls-1" d="M1161.63,1078.82C1265.82,690.44,1073.44,311.36,1159.1-75" transform="translate(40.61 77.19)"/><path class="cls-1" d="M1120,1084.67c90.28-388.29-88.2-767.46-2.54-1153.86" transform="translate(40.61 77.19)"/><path class="cls-1" d="M1082.91,1088.63c76.39-386.34-92.84-767.43-7.17-1153.83" transform="translate(40.61 77.19)"/><path class="cls-1" d="M1041.22,1092.62c62.48-386.26-97.49-769.27-7.16-1152" transform="translate(40.61 77.19)"/><path class="cls-1" d="M999.53,1098.47c25.43-384.16-102.11-769.24-7.16-1152" transform="translate(40.61 77.19)"/><path class="cls-1" d="M962.47,1102.43c16.16-384.11-106.74-769.21-7.16-1152" transform="translate(40.61 77.19)"/><path class="cls-1" d="M920.78,1106.42C932.3,722.34,814,337.21,913.62-45.55" transform="translate(40.61 77.19)"/><path class="cls-1" d="M874.46,1110.43c2.25-384-111.38-769.18-7.15-1150.1" transform="translate(40.61 77.19)"/><path class="cls-1" d="M832.77,1112.56c-2.39-384-111.38-769.19-7.15-1150.11" transform="translate(40.61 77.19)"/><path class="cls-1" d="M786.42,1112.84C784,728.85,675,343.66,779.27-37.26" transform="translate(40.61 77.19)"/><path class="cls-1" d="M740.08,1113.13c-2.39-384-116-771-7.16-1152" transform="translate(40.61 77.19)"/><path class="cls-1" d="M693.72,1113.42c-7-384-120.67-772.85-7.17-1153.83" transform="translate(40.61 77.19)"/><path class="cls-1" d="M647.38,1113.71C635.72,729.78,522,337.16,640.18-43.85" transform="translate(40.61 77.19)"/><path class="cls-1" d="M601,1114C584.74,730.09,466.4,333.78,593.81-47.29" transform="translate(40.61 77.19)"/><path class="cls-1" d="M554.68,1114.28c-25.56-383.84-143.93-785.75-7.24-1165" transform="translate(40.61 77.19)"/><path class="cls-1" d="M508.34,1114.57C478.14,730.76,355.11,323.28,501.06-56" transform="translate(40.61 77.19)"/><path class="cls-1" d="M462,1114.86c-34.83-383.79-162.55-798.69-7.32-1176.2" transform="translate(40.61 77.19)"/><path class="cls-1" d="M415.64,1115.15C371.55,733.28,243.78,310.93,408.3-64.78" transform="translate(40.61 77.19)"/><path class="cls-1" d="M369.29,1115.44C320.57,733.6,192.76,303.79,361.92-70.08" transform="translate(40.61 77.19)"/><path class="cls-1" d="M323,1115.72C269.59,733.92,137.12,300.4,315.56-73.52" transform="translate(40.61 77.19)"/><path class="cls-1" d="M276.6,1116C218.62,736.1,86.1,295.13,269.2-75.1" transform="translate(40.61 77.19)"/><path class="cls-1" d="M230.25,1116.3c-58-379.92-190.51-822.75-7.41-1193" transform="translate(40.61 77.19)"/><path class="cls-1" d="M183.91,1116.59c-58-379.92-190.51-822.75-7.42-1193" transform="translate(40.61 77.19)"/><path class="cls-1" d="M137.56,1116.88C79.58,737-48.3,296,130.15-76.1" transform="translate(40.61 77.19)"/><path class="cls-1" d="M91.22,1117.17C37.86,735.36-80.73,298,83.8-75.81" transform="translate(40.61 77.19)"/><path class="cls-1" d="M44.87,1117.45C-8.5,733.78-113.15,302,37.45-75.52" transform="translate(40.61 77.19)"/></svg>